<?xml version="1.0" encoding="UTF-8" standalone="no"?>
<!DOCTYPE svg PUBLIC "-//W3C//DTD SVG 1.1//EN" "http://www.w3.org/Graphics/SVG/1.1/DTD/svg11.dtd">
<svg xmlns="http://www.w3.org/2000/svg" xmlns:xlink="http://www.w3.org/1999/xlink" version="1.1" width="1200pt" height="1200pt" viewBox="0 0 1200 1200">
<g enable-background="new">
<path d="M 0 0 L 1200 0 L 1200 1200 L 0 1200 Z " fill="#2563eb"/>
<path transform="matrix(1200,0,0,1200,0,0)" d="M 0 0 L 1 0 L 1 1 L 0 1 Z " fill="#ffffff"/>
<path transform="matrix(25.33664,0,0,25.33664,-33.415994,-33.416238)" d="M 3.979 12.596 C 4.486 16.202 5.05 21.443 5.5 25.051 C 8.827 29.051 29.565 36.264 44.836 25.051 L 46.47 11.808 C 34.13 19.415 10.573 16.768 3.979 12.596 Z " fill="#2563eb" fill-rule="evenodd"/>
<path transform="matrix(25.33664,0,0,25.33664,-33.415994,-33.416238)" d="M 25.001 1.72 C 36.945 1.72 46.641 4.536 46.641 7.974 C 46.641 11.468 36.946 14.232 25.001 14.232 C 13.053 14.232 3.359 11.468 3.359 7.974 C 3.359 4.536 13.053 1.72 25.001 1.72 Z M 25.001 4.313 C 16.829 4.313 10.236 5.946 10.236 7.973 C 10.236 10.003 16.829 11.637 25.001 11.637 C 33.116 11.637 39.71 10.003 39.71 7.973 C 39.71 5.946 33.116 4.313 25.001 4.313 Z " fill="#2563eb" fill-rule="evenodd"/>
<path transform="matrix(25.33664,0,0,25.33664,-33.415994,-33.416238)" d="M 6.233 29.277 C 6.796 34.177 7.36 39.084 8.038 43.986 C 19.195 49.339 30.636 50.072 42.526 43.986 L 44.217 29.277 C 28.606 37.955 14.181 33.334 6.233 29.277 Z " fill="#2563eb" fill-rule="evenodd"/>
</g>
</svg>
